<svg xmlns="http://www.w3.org/2000/svg" xmlns:xlink="http://www.w3.org/1999/xlink" fill="#8c8c8c" height="800px" width="800px" version="1.1" id="Capa_1" viewBox="0 0 612 612" xml:space="preserve">
<g>
	<path d="M605.86,118.284L504.667,17.09c-8.187-8.187-21.459-8.187-29.646,0c-8.187,8.187-8.187,21.459,0,29.646l1.678,1.678   l-69.196,69.199l-48.671-48.671c-8.187-8.187-21.459-8.187-29.646,0s-8.187,21.461,0,29.646l20.347,20.347L71.742,396.731   c-3.932,3.931-6.14,9.262-6.14,14.823c0,5.56,2.209,10.892,6.14,14.823l14.287,14.287l-10.608,10.61   c-8.185,8.187-8.185,21.459,0,29.646l14.835,14.834L3.07,582.941c-2.992,2.992-3.891,7.487-2.281,11.4   c1.61,3.911,5.413,6.472,9.642,6.494l44.019,0.216c0.016,0,0.034,0,0.052,0c2.779,0,5.445-1.103,7.411-3.069l65.287-65.285   l14.839,14.837c3.932,3.932,9.264,6.141,14.825,6.14c5.56,0,10.892-2.211,14.823-6.141l10.606-10.61l14.287,14.287   c4.092,4.092,9.459,6.14,14.823,6.14c5.364,0,10.73-2.047,14.823-6.14L504.014,273.42l20.351,20.351   c4.094,4.094,9.459,6.14,14.825,6.14c5.364,0,10.73-2.047,14.823-6.14c8.187-8.187,8.187-21.459,0-29.646l-48.672-48.672   l69.199-69.196l1.677,1.677c4.094,4.094,9.457,6.14,14.823,6.14c5.364,0,10.73-2.047,14.823-6.14   C614.047,139.743,614.047,126.471,605.86,118.284z M211.401,506.739l-95.19-95.184l47.201-47.201l32.833,32.83   c4.092,4.092,9.457,6.14,14.823,6.14s10.73-2.047,14.823-6.141c8.187-8.187,8.187-21.459,0-29.646l-32.833-32.83l44.468-44.47   l32.828,32.828c4.092,4.092,9.459,6.14,14.823,6.14c5.364,0,10.73-2.047,14.823-6.14c8.187-8.187,8.187-21.459,0-29.646   l-32.828-32.828l44.468-44.47l32.831,32.833c4.092,4.092,9.459,6.14,14.823,6.14c5.364,0,10.73-2.047,14.823-6.14   c8.187-8.187,8.187-21.459,0-29.646l-32.833-32.833l37.89-37.89l60.61,60.612l21.078,21.079c0.007,0.007,0.016,0.013,0.023,0.02   l13.479,13.479L211.401,506.739z" fill="#8c8c8c"/>
</g>
</svg>